<?xml version="1.0" standalone="no"?>
<!DOCTYPE svg PUBLIC "-//W3C//DTD SVG 20010904//EN"
 "http://www.w3.org/TR/2001/REC-SVG-20010904/DTD/svg10.dtd">
<svg version="1.0" xmlns="http://www.w3.org/2000/svg"
 width="1234.000000pt" height="2211.000000pt" viewBox="0 0 1234.000000 2211.000000"
 preserveAspectRatio="xMidYMid meet">

<g transform="translate(0.000000,2211.000000) scale(0.100000,-0.100000)"
fill="#000000" stroke="none">
<path d="M8191 8559 c-363 -63 -763 -244 -959 -433 -82 -79 -195 -231 -215
-289 -10 -29 -21 -83 -24 -122 l-5 -70 104 -195 105 -195 84 -49 c55 -33 112
-57 167 -70 l83 -21 36 -80 c19 -44 46 -94 59 -112 33 -43 114 -72 246 -85 59
-7 108 -15 108 -18 0 -4 -22 -34 -48 -66 -54 -68 -89 -142 -99 -209 -5 -40 0
-60 38 -148 60 -141 144 -268 209 -317 33 -25 93 -53 168 -79 171 -60 156 -49
130 -96 -17 -32 -22 -57 -23 -120 0 -78 2 -85 57 -200 32 -66 77 -163 100
-215 67 -148 203 -421 254 -512 26 -46 155 -288 287 -538 l240 -455 1 -71 2
-70 641 -1220 c352 -670 649 -1244 658 -1274 25 -78 67 -159 109 -209 36 -43
44 -65 27 -76 -5 -3 -22 -27 -37 -53 -22 -39 -27 -60 -28 -122 -1 -70 -3 -76
-28 -92 -58 -37 -44 -116 50 -291 74 -138 237 -323 320 -364 60 -29 112 -27
145 5 25 26 57 165 50 219 -10 72 -11 72 134 52 217 -31 303 -22 451 47 140
64 208 117 336 262 120 135 120 136 147 227 l26 92 -29 127 -29 127 52 70 c50
68 51 71 45 121 -10 72 -43 135 -101 194 -67 67 -149 107 -211 102 l-48 -3
-694 1360 -693 1360 -64 42 -63 42 -398 788 c-218 433 -421 824 -449 868 -29
44 -62 98 -73 120 -18 35 -30 45 -112 80 -50 22 -96 46 -102 53 -6 6 -26 12
-45 12 -19 0 -33 3 -31 8 59 114 78 184 78 287 l0 80 -105 175 c-71 118 -116
182 -139 198 -80 55 -254 87 -340 63 -22 -6 -41 -9 -43 -8 -1 2 20 46 48 98
28 52 61 132 75 179 l23 85 -54 96 -55 97 21 49 c27 63 59 187 59 231 0 43
-197 435 -235 469 -57 50 -270 84 -394 62z m270 -156 c38 -20 59 -38 71 -63 9
-19 17 -38 18 -42 0 -5 -45 -8 -99 -8 -137 0 -245 -25 -518 -119 -265 -92
-306 -110 -394 -181 -73 -58 -68 -60 -120 42 l-29 57 70 50 c38 28 72 51 76
51 3 0 18 8 32 19 71 50 431 177 577 204 44 8 121 15 171 16 80 1 97 -2 145
-26z m28 -457 c56 -106 101 -197 101 -200 0 -4 -48 -6 -107 -5 -104 2 -113 1
-250 -45 -181 -60 -400 -167 -471 -231 l-52 -47 -14 33 c-8 19 -46 106 -85
194 l-71 160 44 41 c99 91 480 249 686 283 58 10 108 16 112 14 4 -2 52 -91
107 -197z m846 -1717 c41 -17 82 -41 92 -52 17 -19 17 -20 1 -14 -10 3 -57 9
-105 13 -75 5 -106 2 -205 -20 -216 -48 -327 -105 -462 -233 -41 -40 -78 -73
-81 -73 -2 0 -11 13 -19 28 -14 28 -13 30 52 112 53 67 86 96 167 149 120 79
144 89 255 106 151 23 220 19 305 -16z m90 -204 c28 -11 24 -12 -55 -19 -90
-7 -256 -50 -360 -92 -105 -43 -162 -80 -254 -169 -63 -60 -92 -81 -98 -73
-13 21 -10 26 63 114 59 69 88 94 168 142 119 70 143 80 256 102 97 19 225 17
280 -5z m134 -181 c91 -39 80 -50 -48 -46 -93 3 -123 0 -207 -23 -187 -50
-358 -143 -475 -256 -52 -50 -58 -53 -68 -37 -10 16 -2 31 55 100 81 102 230
208 334 238 36 11 88 26 115 34 28 8 91 15 142 15 78 1 101 -3 152 -25z m85
-204 c45 -21 99 -67 109 -94 6 -15 3 -17 -26 -9 -17 4 -70 8 -117 8 -69 -1
-109 -8 -207 -38 -67 -20 -146 -49 -175 -63 -85 -44 -209 -128 -267 -183 -30
-28 -56 -50 -57 -48 -1 1 -15 24 -32 52 l-31 49 77 81 c122 129 276 222 422
257 95 22 243 17 304 -12z m59 -240 c40 0 116 -34 157 -69 l25 -22 -35 8 c-67
14 -189 4 -289 -23 -166 -46 -375 -165 -470 -270 -29 -31 -55 -54 -58 -50 -3
3 -16 22 -29 43 l-22 37 77 84 c77 85 182 165 269 204 83 38 252 75 297 67 22
-5 57 -8 78 -9z m209 -241 c49 -18 57 -26 81 -75 l27 -54 -105 0 c-143 0 -252
-31 -480 -136 -30 -14 -89 -61 -150 -118 -55 -53 -100 -96 -100 -96 0 0 -16
29 -34 64 l-35 64 77 95 c76 95 142 148 259 209 123 63 356 87 460 47z m148
-298 c62 -30 68 -35 108 -101 l21 -35 -86 9 c-110 12 -216 -3 -366 -51 -133
-42 -297 -135 -374 -213 l-51 -51 -26 47 c-14 26 -26 50 -26 54 0 13 147 187
163 193 8 3 53 33 101 67 81 57 92 62 198 84 62 13 150 24 195 25 70 1 89 -3
143 -28z m22 -266 c58 -9 100 -22 123 -38 l35 -24 -71 -6 c-130 -11 -351 -87
-504 -174 -45 -26 -111 -76 -150 -115 l-71 -68 -33 57 -33 58 94 88 c81 76
110 96 218 149 116 57 178 75 295 87 6 0 49 -6 97 -14z m301 -246 c45 -17 89
-39 98 -48 9 -9 312 -604 672 -1322 l656 -1306 -67 -7 c-143 -15 -309 -64
-447 -133 -111 -56 -144 -79 -226 -154 -53 -49 -101 -89 -106 -89 -5 0 -38 51
-73 112 -35 62 -99 172 -142 245 -43 72 -87 157 -98 187 -10 31 -255 514 -543
1073 -656 1272 -585 1124 -563 1166 10 18 44 50 75 71 31 20 78 55 106 77 27
21 79 53 115 69 36 17 74 36 85 42 45 25 164 46 268 47 98 1 115 -2 190 -30z
m1649 -2803 c15 -1 29 -4 31 -7 14 -18 69 -115 81 -144 14 -31 13 -42 -1 -101
-13 -53 -21 -68 -44 -80 -15 -8 -34 -14 -42 -14 -8 0 -22 -9 -32 -20 -10 -11
-23 -20 -30 -20 -12 0 -35 46 -55 113 -6 20 -29 78 -50 127 l-38 90 41 24 c77
43 82 45 97 40 8 -3 27 -7 42 -8z m-203 -93 c13 -43 40 -123 62 -177 45 -112
44 -116 -31 -116 -76 0 -204 -41 -435 -138 -22 -9 -85 -59 -139 -110 l-99 -92
-90 166 -90 167 69 64 c81 74 160 131 229 165 28 13 68 36 91 50 76 49 244 93
365 97 l46 1 22 -77z m-1009 -783 c49 -90 90 -165 90 -167 0 -1 -8 -3 -18 -3
-10 0 -48 23 -84 51 -54 41 -70 60 -83 97 -23 68 -31 158 -15 177 7 9 14 14
16 12 2 -2 44 -77 94 -167z m288 98 c32 -65 45 -150 71 -446 22 -239 -50 -349
-170 -264 -21 15 -80 71 -131 126 -153 162 -258 363 -229 438 11 30 31 45 32
26 0 -7 0 -31 -1 -53 -1 -22 4 -54 10 -70 22 -60 131 -232 186 -295 144 -164
223 -180 260 -53 19 65 15 179 -11 337 -17 106 -19 114 -52 194 -25 59 -45 77
-56 49 -4 -11 -55 -26 -139 -42 -42 -7 -31 52 10 61 15 4 59 17 97 30 39 13
75 23 81 24 6 0 25 -28 42 -62z m-288 -288 c36 -15 164 -8 186 11 8 6 16 10
18 8 1 -2 23 -31 47 -63 l44 -59 -1 -86 c0 -61 -6 -97 -18 -124 -31 -63 -78
-46 -177 62 -80 86 -166 223 -184 291 l-14 52 34 -40 c19 -21 48 -45 65 -52z"/>
</g>
</svg>
